<?xml version="1.0" standalone="no"?>
<!DOCTYPE svg PUBLIC "-//W3C//DTD SVG 20010904//EN"
 "http://www.w3.org/TR/2001/REC-SVG-20010904/DTD/svg10.dtd">
<svg version="1.0" xmlns="http://www.w3.org/2000/svg"
 width="512.000000pt" height="512.000000pt" viewBox="0 0 512.000000 512.000000"
 preserveAspectRatio="xMidYMid meet">

<g transform="translate(0.000000,512.000000) scale(0.100000,-0.100000)"
fill="#000000" stroke="none">
<path d="M2380 4794 c-957 -87 -1751 -758 -1988 -1679 -53 -208 -66 -317 -66
-555 0 -237 13 -348 65 -550 226 -878 948 -1528 1849 -1667 158 -24 481 -24
640 0 985 151 1745 911 1897 1897 24 159 24 481 0 640 -138 898 -788 1621
-1662 1850 -157 41 -313 61 -505 64 -102 2 -205 2 -230 0z m-219 -567 c79 -42
109 -129 70 -205 -28 -54 -49 -70 -148 -106 -368 -137 -649 -388 -808 -721
-46 -97 -72 -126 -132 -146 -111 -36 -227 60 -209 175 7 44 81 189 150 296
199 306 531 569 881 696 108 40 138 41 196 11z m617 -897 c271 -77 476 -282
554 -557 32 -112 32 -314 0 -426 -79 -277 -282 -480 -559 -559 -103 -30 -313
-32 -413 -4 -284 78 -492 283 -572 563 -32 112 -32 314 0 426 87 305 325 520
640 577 78 15 268 4 350 -20z m1322 -1279 c44 -31 70 -80 70 -132 0 -40 -12
-71 -65 -176 -194 -384 -553 -696 -971 -846 -60 -22 -78 -24 -114 -16 -69 16
-100 37 -121 82 -22 50 -24 86 -5 130 21 50 56 75 152 111 49 18 122 50 163
71 275 138 502 370 635 648 24 51 55 102 67 114 48 43 137 50 189 14z"/>
<path d="M2443 3026 c-170 -41 -301 -169 -345 -335 -93 -356 207 -674 564
-600 219 46 378 243 378 469 0 312 -292 540 -597 466z"/>
</g>
</svg>
